<svg
		width="18"
		height="18"
		viewBox="0 0 48 48"
		fill="none"
		xmlns="http://www.w3.org/2000/svg"
	>
		<path
			fill-rule="evenodd"
			clip-rule="evenodd"
			d="M10.8267 26.918C19.7126 26.918 26.9159 19.7146 26.9159 10.8288C26.9159 9.31419 26.7067 7.84845 26.3154 6.45894C25.8949 4.96537 26.9684 3.32244 28.4857 3.64695C37.9231 5.66527 44.9998 14.0523 44.9998 24.0922C44.9998 35.6392 35.6391 44.9999 24.0921 44.9999C14.0532 44.9999 5.66687 37.9248 3.64743 28.4888C3.32271 26.9715 4.96548 25.8978 6.4591 26.3181C7.84796 26.7089 9.31294 26.918 10.8267 26.918Z"
			fill="#DAD4E0"
		/>
		<path
			d="M6.4591 26.3181L5.64644 29.2059L6.4591 26.3181ZM26.3154 6.45894L23.4277 7.27202L26.3154 6.45894ZM28.4857 3.64695L27.8583 6.58061L28.4857 3.64695ZM23.9159 10.8288C23.9159 18.0578 18.0557 23.918 10.8267 23.918V29.918C21.3694 29.918 29.9159 21.3715 29.9159 10.8288H23.9159ZM23.4277 7.27202C23.7452 8.39951 23.9159 9.59175 23.9159 10.8288H29.9159C29.9159 9.03663 29.6681 7.2974 29.2031 5.64586L23.4277 7.27202ZM27.8583 6.58061C35.9407 8.30913 41.9998 15.4966 41.9998 24.0922H47.9998C47.9998 12.6081 39.9056 3.02141 29.1131 0.713285L27.8583 6.58061ZM41.9998 24.0922C41.9998 33.9824 33.9822 41.9999 24.0921 41.9999V47.9999C37.2959 47.9999 47.9998 37.2961 47.9998 24.0922H41.9998ZM24.0921 41.9999C15.4973 41.9999 8.31048 35.9421 6.581 27.861L0.713859 29.1167C3.02325 39.9074 12.6091 47.9999 24.0921 47.9999V41.9999ZM10.8267 23.918C9.59034 23.918 8.39872 23.7474 7.27176 23.4303L5.64644 29.2059C7.29719 29.6705 9.03553 29.918 10.8267 29.918V23.918ZM6.581 27.861C6.629 28.0853 6.61123 28.3658 6.49744 28.6315C6.39187 28.878 6.24195 29.0258 6.13764 29.1018C5.95927 29.2317 5.79437 29.2476 5.64644 29.2059L7.27176 23.4303C5.63021 22.9683 3.89711 23.3109 2.60513 24.2519C1.24701 25.2411 0.265337 27.0209 0.713859 29.1167L6.581 27.861ZM29.2031 5.64586C29.2448 5.79378 29.229 5.95868 29.0991 6.13708C29.0231 6.24139 28.8753 6.39133 28.6289 6.49693C28.3632 6.61077 28.0826 6.62857 27.8583 6.58061L29.1131 0.713285C27.0173 0.265067 25.2377 1.24699 24.2487 2.60526C23.3078 3.89738 22.9655 5.63053 23.4277 7.27202L29.2031 5.64586Z"
			fill="#111010"
		/>
	</svg>